<?xml version="1.0" encoding="UTF-8" standalone="no"?>
<svg
   xmlns:dc="http://purl.org/dc/elements/1.1/"
   xmlns:cc="http://creativecommons.org/ns#"
   xmlns:rdf="http://www.w3.org/1999/02/22-rdf-syntax-ns#"
   xmlns:svg="http://www.w3.org/2000/svg"
   xmlns="http://www.w3.org/2000/svg"
   xmlns:sodipodi="http://sodipodi.sourceforge.net/DTD/sodipodi-0.dtd"
   xmlns:inkscape="http://www.inkscape.org/namespaces/inkscape"
   width="369.013611pt"
   height="115.633865pt"
   viewBox="0 0 369.013611 115.633865"
   version="1.2"
   id="svg58"
   sodipodi:docname="Whittle_Lab_Logo_Black.svg"
   inkscape:version="1.0.2 (e86c870879, 2021-01-15)">
  <metadata
     id="metadata62">
    <rdf:RDF>
      <cc:Work
         rdf:about="">
        <dc:format>image/svg+xml</dc:format>
        <dc:type
           rdf:resource="http://purl.org/dc/dcmitype/StillImage" />
        <dc:title></dc:title>
      </cc:Work>
    </rdf:RDF>
  </metadata>
  <sodipodi:namedview
     pagecolor="#ffffff"
     bordercolor="#666666"
     borderopacity="1"
     objecttolerance="10"
     gridtolerance="10"
     guidetolerance="10"
     inkscape:pageopacity="0"
     inkscape:pageshadow="2"
     inkscape:window-width="1916"
     inkscape:window-height="1016"
     id="namedview60"
     showgrid="false"
     inkscape:zoom="2.4450318"
     inkscape:cx="246.00907"
     inkscape:cy="77.089244"
     inkscape:window-x="0"
     inkscape:window-y="40"
     inkscape:window-maximized="0"
     inkscape:current-layer="svg58" />
  <defs
     id="defs11">
    <clipPath
       id="clip1">
      <path
         d="M 331 20 L 369.011719 20 L 369.011719 62 L 331 62 Z M 331 20 "
         id="path2" />
    </clipPath>
    <clipPath
       id="clip2">
      <path
         d="M 342 77 L 367 77 L 367 115.632812 L 342 115.632812 Z M 342 77 "
         id="path5" />
    </clipPath>
    <clipPath
       id="clip3">
      <path
         d="M 0 0 L 103 0 L 103 115.632812 L 0 115.632812 Z M 0 0 "
         id="path8" />
    </clipPath>
  </defs>
  <g
     id="surface5116">
    <path
       style=" stroke:none;fill-rule:nonzero;fill:rgb(0%,0%,0%);fill-opacity:1;"
       d="M 129.472656 60.835938 L 116.515625 6.050781 L 127.8125 6.050781 L 136.007812 43.6875 L 146.253906 6.050781 L 159.429688 6.050781 L 169.199219 44.320312 L 177.386719 6.050781 L 188.695312 6.050781 L 175.75 60.835938 L 163.683594 60.835938 L 152.605469 19.878906 L 141.457031 60.835938 L 129.472656 60.835938 "
       id="path13" />
    <path
       style=" stroke:none;fill-rule:nonzero;fill:rgb(0%,0%,0%);fill-opacity:1;"
       d="M 204.808594 6.050781 L 204.808594 25.933594 C 208.160156 21.980469 212.234375 20.046875 216.933594 20.046875 C 219.339844 20.042969 221.523438 20.5 223.460938 21.402344 C 225.386719 22.28125 226.863281 23.457031 227.847656 24.859375 C 228.816406 26.253906 229.5 27.8125 229.863281 29.515625 C 230.207031 31.191406 230.402344 33.855469 230.402344 37.4375 L 230.402344 60.835938 L 219.804688 60.835938 L 219.804688 39.71875 C 219.773438 35.496094 219.609375 32.863281 219.214844 31.734375 C 218.820312 30.574219 218.121094 29.707031 217.121094 29.042969 C 216.121094 28.375 214.871094 28.046875 213.363281 28.046875 C 211.617188 28.042969 210.089844 28.472656 208.734375 29.324219 C 207.371094 30.148438 206.382812 31.464844 205.753906 33.183594 C 205.109375 34.886719 204.808594 37.445312 204.808594 40.808594 L 204.808594 60.835938 L 194.210938 60.835938 L 194.210938 6.050781 L 204.808594 6.050781 "
       id="path15" />
    <path
       style=" stroke:none;fill-rule:nonzero;fill:rgb(0%,0%,0%);fill-opacity:1;"
       d="M 241.011719 15.851562 L 241.011719 6.050781 L 251.609375 6.050781 L 251.609375 15.851562 Z M 241.011719 60.835938 L 241.011719 21.046875 L 251.609375 21.046875 L 251.609375 60.835938 L 241.011719 60.835938 "
       id="path17" />
    <path
       style=" stroke:none;fill-rule:nonzero;fill:rgb(0%,0%,0%);fill-opacity:1;"
       d="M 280.910156 21.046875 L 280.910156 29.445312 L 273.710938 29.445312 L 273.710938 45.5 C 273.679688 48.730469 273.78125 50.648438 273.921875 51.183594 C 274.058594 51.707031 274.378906 52.164062 274.878906 52.515625 C 275.351562 52.839844 275.980469 53.039062 276.691406 53.039062 C 277.660156 53.039062 279.125 52.703125 281.007812 52.027344 L 281.707031 60.25 C 279.230469 61.304688 276.492188 61.835938 273.398438 61.835938 C 271.476562 61.835938 269.796875 61.515625 268.273438 60.878906 C 266.734375 60.226562 265.636719 59.414062 264.925781 58.398438 C 264.214844 57.363281 263.726562 56.011719 263.449219 54.28125 C 263.214844 53.039062 263.113281 50.574219 263.113281 46.84375 L 263.113281 29.445312 L 258.117188 29.445312 L 258.117188 21.046875 L 263.113281 21.046875 L 263.113281 13.449219 L 273.710938 7.25 L 273.710938 21.046875 L 280.910156 21.046875 "
       id="path19" />
    <path
       style=" stroke:none;fill-rule:nonzero;fill:rgb(0%,0%,0%);fill-opacity:1;"
       d="M 306.410156 21.046875 L 306.410156 29.445312 L 299.210938 29.445312 L 299.210938 45.5 C 299.179688 48.730469 299.28125 50.648438 299.421875 51.183594 C 299.558594 51.707031 299.878906 52.164062 300.378906 52.515625 C 300.851562 52.839844 301.480469 53.039062 302.191406 53.039062 C 303.160156 53.039062 304.625 52.703125 306.507812 52.027344 L 307.207031 60.25 C 304.730469 61.304688 301.992188 61.835938 298.898438 61.835938 C 296.976562 61.835938 295.296875 61.515625 293.773438 60.878906 C 292.234375 60.226562 291.136719 59.414062 290.425781 58.398438 C 289.714844 57.363281 289.226562 56.011719 288.949219 54.28125 C 288.714844 53.039062 288.613281 50.574219 288.613281 46.84375 L 288.613281 29.445312 L 283.617188 29.445312 L 283.617188 21.046875 L 288.613281 21.046875 L 288.613281 13.449219 L 299.210938 7.25 L 299.210938 21.046875 L 306.410156 21.046875 "
       id="path21" />
    <path
       style=" stroke:none;fill-rule:nonzero;fill:rgb(0%,0%,0%);fill-opacity:1;"
       d="M 313.3125 6.050781 L 323.910156 6.050781 L 323.910156 60.835938 L 313.3125 60.835938 Z M 313.3125 6.050781 "
       id="path23" />
    <g
       clip-path="url(#clip1)"
       clip-rule="nonzero"
       id="g27">
      <path
         style=" stroke:none;fill-rule:nonzero;fill:rgb(0%,0%,0%);fill-opacity:1;"
         d="M 357.804688 48.441406 L 368.203125 50.242188 C 366.828125 54.019531 364.726562 56.898438 361.820312 58.875 C 358.910156 60.835938 355.269531 61.835938 350.902344 61.835938 C 343.957031 61.835938 338.867188 59.566406 335.546875 55.023438 C 332.914062 51.355469 331.613281 46.789062 331.613281 41.242188 C 331.613281 34.613281 333.347656 29.429688 336.816406 25.675781 C 340.285156 21.910156 344.667969 20.046875 349.96875 20.046875 C 355.90625 20.042969 360.625 22 364.066406 25.902344 C 367.492188 29.785156 369.152344 35.785156 369.003906 43.839844 L 342.414062 43.839844 C 342.457031 46.996094 343.339844 49.453125 344.972656 51.207031 C 346.585938 52.9375 348.636719 53.839844 351.066406 53.839844 C 352.707031 53.839844 354.117188 53.414062 355.246094 52.5625 C 356.367188 51.699219 357.230469 50.332031 357.808594 48.441406 Z M 358.605469 37.445312 C 358.5 34.371094 357.726562 32.039062 356.203125 30.445312 C 354.648438 28.84375 352.824219 28.046875 350.640625 28.046875 C 348.292969 28.042969 346.371094 28.890625 344.847656 30.574219 C 343.3125 32.25 342.574219 34.550781 342.597656 37.445312 L 358.605469 37.445312 "
         id="path25" />
    </g>
    <path
       style=" stroke:none;fill-rule:nonzero;fill:rgb(0%,0%,0%);fill-opacity:1;"
       d="M 120.3125 104.636719 L 120.3125 67.042969 L 125.3125 67.042969 L 125.3125 100.238281 L 144.109375 100.238281 L 144.109375 104.636719 L 120.3125 104.636719 "
       id="path29" />
    <path
       style=" stroke:none;fill-rule:nonzero;fill:rgb(0%,0%,0%);fill-opacity:1;"
       d="M 167.3125 101.238281 C 165.640625 102.699219 164.042969 103.734375 162.425781 104.335938 C 160.808594 104.90625 159.078125 105.238281 157.226562 105.238281 C 154.164062 105.238281 151.820312 104.511719 150.175781 103.058594 C 148.515625 101.597656 147.714844 99.746094 147.714844 97.484375 C 147.714844 96.144531 148.023438 94.949219 148.644531 93.851562 C 149.257812 92.75 150.078125 91.875 151.082031 91.210938 C 152.0625 90.523438 153.21875 90.046875 154.480469 89.707031 C 155.382812 89.445312 156.800781 89.242188 158.671875 89.019531 C 162.464844 88.550781 165.289062 88.050781 167.085938 87.4375 C 167.082031 86.800781 167.113281 86.394531 167.113281 86.222656 C 167.082031 84.296875 166.660156 82.992188 165.753906 82.214844 C 164.515625 81.136719 162.707031 80.640625 160.296875 80.640625 C 158.011719 80.636719 156.375 81.019531 155.296875 81.785156 C 154.195312 82.53125 153.429688 83.898438 152.914062 85.839844 L 148.316406 85.238281 C 148.730469 83.300781 149.417969 81.742188 150.375 80.550781 C 151.3125 79.355469 152.710938 78.445312 154.519531 77.804688 C 156.324219 77.136719 158.421875 76.839844 160.800781 76.839844 C 163.136719 76.835938 165.082031 77.113281 166.558594 77.660156 C 168.023438 78.199219 169.125 78.898438 169.816406 79.726562 C 170.511719 80.523438 171 81.601562 171.277344 82.871094 C 171.414062 83.644531 171.511719 85.074219 171.511719 87.121094 L 171.511719 93.253906 C 171.480469 97.523438 171.605469 100.234375 171.796875 101.371094 C 171.957031 102.492188 172.355469 103.59375 172.914062 104.636719 L 168.3125 104.636719 C 167.761719 103.667969 167.460938 102.535156 167.3125 101.234375 Z M 167.109375 91.039062 C 165.359375 91.71875 162.808594 92.296875 159.371094 92.769531 C 157.40625 93.03125 156.046875 93.351562 155.238281 93.691406 C 154.421875 94.011719 153.808594 94.527344 153.371094 95.179688 C 152.914062 95.820312 152.710938 96.5625 152.710938 97.359375 C 152.679688 98.574219 153.1875 99.601562 154.144531 100.417969 C 155.089844 101.207031 156.496094 101.640625 158.335938 101.640625 C 160.148438 101.640625 161.777344 101.25 163.195312 100.476562 C 164.585938 99.6875 165.65625 98.644531 166.324219 97.300781 C 166.828125 96.246094 167.085938 94.738281 167.085938 92.722656 L 167.109375 91.039062 "
       id="path31" />
    <path
       style=" stroke:none;fill-rule:nonzero;fill:rgb(0%,0%,0%);fill-opacity:1;"
       d="M 182.613281 104.636719 L 178.214844 104.636719 L 178.214844 67.042969 L 182.8125 67.042969 L 182.8125 80.511719 C 184.726562 78.039062 187.246094 76.84375 190.273438 76.84375 C 191.929688 76.839844 193.535156 77.179688 195.03125 77.855469 C 196.519531 78.523438 197.757812 79.472656 198.722656 80.691406 C 199.683594 81.894531 200.441406 83.382812 200.988281 85.105469 C 201.511719 86.804688 201.808594 88.667969 201.808594 90.628906 C 201.777344 95.253906 200.664062 98.882812 198.371094 101.425781 C 196.0625 103.9375 193.332031 105.238281 190.125 105.238281 C 186.929688 105.238281 184.429688 103.894531 182.613281 101.207031 Z M 182.414062 90.835938 C 182.378906 94.054688 182.859375 96.4375 183.757812 97.886719 C 185.207031 100.238281 187.207031 101.4375 189.710938 101.4375 C 191.710938 101.4375 193.503906 100.566406 194.984375 98.820312 C 196.445312 97.046875 197.210938 94.472656 197.210938 91.015625 C 197.179688 87.445312 196.5 84.859375 195.078125 83.171875 C 193.632812 81.472656 191.933594 80.640625 189.917969 80.640625 C 187.878906 80.640625 186.121094 81.515625 184.636719 83.257812 C 183.148438 85 182.414062 87.53125 182.414062 90.835938 "
       id="path33" />
    <path
       style=" stroke:none;fill-rule:nonzero;fill:rgb(0%,0%,0%);fill-opacity:1;"
       d="M 205.714844 91.039062 C 205.714844 86.007812 207.109375 82.28125 209.898438 79.859375 C 212.203125 77.839844 215.074219 76.84375 218.425781 76.84375 C 222.148438 76.839844 225.195312 78.066406 227.5625 80.515625 C 229.910156 82.9375 231.109375 86.339844 231.109375 90.65625 C 231.078125 94.148438 230.585938 96.90625 229.539062 98.910156 C 228.484375 100.890625 226.972656 102.46875 224.972656 103.574219 C 222.953125 104.671875 220.792969 105.238281 218.425781 105.238281 C 214.625 105.238281 211.5625 104.019531 209.222656 101.578125 C 206.882812 99.125 205.714844 95.625 205.714844 91.039062 Z M 210.3125 91.027344 C 210.277344 94.476562 211.082031 97.109375 212.617188 98.84375 C 214.152344 100.570312 216.089844 101.4375 218.425781 101.4375 C 220.734375 101.4375 222.667969 100.570312 224.203125 98.828125 C 225.710938 97.058594 226.511719 94.4375 226.511719 90.875 C 226.476562 87.503906 225.738281 84.96875 224.191406 83.238281 C 222.617188 81.507812 220.722656 80.640625 218.425781 80.640625 C 216.085938 80.640625 214.15625 81.503906 212.617188 83.226562 C 211.078125 84.917969 210.3125 87.546875 210.3125 91.027344 "
       id="path35" />
    <path
       style=" stroke:none;fill-rule:nonzero;fill:rgb(0%,0%,0%);fill-opacity:1;"
       d="M 236.714844 104.636719 L 236.714844 77.441406 L 240.710938 77.441406 L 240.710938 81.617188 C 241.714844 79.644531 242.703125 78.390625 243.582031 77.773438 C 244.4375 77.140625 245.421875 76.839844 246.476562 76.839844 C 247.976562 76.839844 249.542969 77.335938 251.109375 78.320312 L 249.539062 82.546875 C 248.457031 81.941406 247.386719 81.640625 246.304688 81.640625 C 245.3125 81.640625 244.476562 81.945312 243.710938 82.546875 C 242.910156 83.152344 242.394531 83.992188 242.058594 85.066406 C 241.546875 86.691406 241.3125 88.488281 241.3125 90.429688 L 241.3125 104.636719 L 236.714844 104.636719 "
       id="path37" />
    <path
       style=" stroke:none;fill-rule:nonzero;fill:rgb(0%,0%,0%);fill-opacity:1;"
       d="M 272.109375 101.238281 C 270.4375 102.699219 268.84375 103.734375 267.226562 104.335938 C 265.605469 104.90625 263.878906 105.238281 262.023438 105.238281 C 258.964844 105.238281 256.621094 104.511719 254.976562 103.058594 C 253.316406 101.597656 252.515625 99.746094 252.515625 97.484375 C 252.515625 96.144531 252.824219 94.949219 253.445312 93.851562 C 254.054688 92.75 254.878906 91.875 255.882812 91.210938 C 256.863281 90.523438 258.019531 90.046875 259.277344 89.707031 C 260.183594 89.445312 261.601562 89.242188 263.472656 89.019531 C 267.261719 88.550781 270.085938 88.050781 271.886719 87.4375 C 271.878906 86.800781 271.914062 86.394531 271.914062 86.222656 C 271.878906 84.296875 271.460938 82.992188 270.554688 82.214844 C 269.316406 81.136719 267.507812 80.640625 265.09375 80.640625 C 262.8125 80.636719 261.171875 81.019531 260.097656 81.785156 C 258.996094 82.53125 258.226562 83.898438 257.714844 85.839844 L 253.117188 85.238281 C 253.53125 83.300781 254.21875 81.742188 255.175781 80.550781 C 256.109375 79.355469 257.511719 78.445312 259.320312 77.804688 C 261.125 77.136719 263.222656 76.839844 265.601562 76.839844 C 267.933594 76.835938 269.882812 77.113281 271.359375 77.660156 C 272.824219 78.199219 273.921875 78.898438 274.617188 79.726562 C 275.3125 80.523438 275.800781 81.601562 276.078125 82.871094 C 276.214844 83.644531 276.3125 85.074219 276.3125 87.121094 L 276.3125 93.253906 C 276.28125 97.523438 276.40625 100.234375 276.597656 101.371094 C 276.757812 102.492188 277.15625 103.59375 277.710938 104.636719 L 273.113281 104.636719 C 272.5625 103.667969 272.261719 102.535156 272.113281 101.234375 Z M 271.910156 91.039062 C 270.160156 91.71875 267.609375 92.296875 264.171875 92.769531 C 262.207031 93.03125 260.847656 93.351562 260.039062 93.691406 C 259.222656 94.011719 258.609375 94.527344 258.171875 95.179688 C 257.714844 95.820312 257.511719 96.5625 257.511719 97.359375 C 257.480469 98.574219 257.988281 99.601562 258.945312 100.417969 C 259.890625 101.207031 261.296875 101.640625 263.132812 101.640625 C 264.949219 101.640625 266.578125 101.25 267.996094 100.476562 C 269.386719 99.6875 270.457031 98.644531 271.125 97.300781 C 271.628906 96.246094 271.886719 94.738281 271.886719 92.722656 L 271.910156 91.039062 "
       id="path39" />
    <path
       style=" stroke:none;fill-rule:nonzero;fill:rgb(0%,0%,0%);fill-opacity:1;"
       d="M 293.113281 100.75 L 293.710938 104.820312 C 292.394531 105.070312 291.273438 105.238281 290.257812 105.238281 C 288.585938 105.238281 287.3125 104.96875 286.398438 104.4375 C 285.457031 103.867188 284.84375 103.199219 284.472656 102.328125 C 284.082031 101.425781 283.914062 99.625 283.914062 96.835938 L 283.914062 81.039062 L 280.515625 81.039062 L 280.515625 77.441406 L 283.914062 77.441406 L 283.914062 70.714844 L 288.511719 67.949219 L 288.511719 77.441406 L 293.113281 77.441406 L 293.113281 81.039062 L 288.511719 81.039062 L 288.511719 97.046875 C 288.480469 98.367188 288.59375 99.222656 288.753906 99.601562 C 288.902344 99.957031 289.179688 100.277344 289.542969 100.503906 C 289.894531 100.707031 290.425781 100.839844 291.105469 100.839844 C 291.582031 100.839844 292.285156 100.808594 293.113281 100.75 "
       id="path41" />
    <path
       style=" stroke:none;fill-rule:nonzero;fill:rgb(0%,0%,0%);fill-opacity:1;"
       d="M 296.015625 91.039062 C 296.015625 86.007812 297.410156 82.28125 300.199219 79.859375 C 302.503906 77.839844 305.375 76.84375 308.726562 76.84375 C 312.449219 76.839844 315.496094 78.066406 317.859375 80.515625 C 320.210938 82.9375 321.410156 86.339844 321.410156 90.65625 C 321.378906 94.148438 320.886719 96.90625 319.839844 98.910156 C 318.785156 100.890625 317.269531 102.46875 315.273438 103.574219 C 313.253906 104.671875 311.089844 105.238281 308.726562 105.238281 C 304.925781 105.238281 301.859375 104.019531 299.523438 101.578125 C 297.179688 99.125 296.015625 95.625 296.015625 91.039062 Z M 300.613281 91.027344 C 300.578125 94.476562 301.382812 97.109375 302.917969 98.84375 C 304.453125 100.570312 306.390625 101.4375 308.722656 101.4375 C 311.035156 101.4375 312.964844 100.570312 314.503906 98.828125 C 316.011719 97.058594 316.808594 94.4375 316.808594 90.875 C 316.777344 87.503906 316.039062 84.96875 314.492188 83.238281 C 312.917969 81.507812 311.019531 80.640625 308.722656 80.640625 C 306.386719 80.640625 304.457031 81.503906 302.917969 83.226562 C 301.378906 84.917969 300.613281 87.546875 300.613281 91.027344 "
       id="path43" />
    <path
       style=" stroke:none;fill-rule:nonzero;fill:rgb(0%,0%,0%);fill-opacity:1;"
       d="M 327.015625 104.636719 L 327.015625 77.441406 L 331.011719 77.441406 L 331.011719 81.617188 C 332.015625 79.644531 333.003906 78.390625 333.882812 77.773438 C 334.734375 77.140625 335.722656 76.839844 336.773438 76.839844 C 338.273438 76.839844 339.839844 77.335938 341.410156 78.320312 L 339.839844 82.546875 C 338.753906 81.941406 337.683594 81.640625 336.605469 81.640625 C 335.613281 81.640625 334.777344 81.945312 334.011719 82.546875 C 333.210938 83.152344 332.691406 83.992188 332.359375 85.066406 C 331.847656 86.691406 331.613281 88.488281 331.613281 90.429688 L 331.613281 104.636719 L 327.015625 104.636719 "
       id="path45" />
    <g
       clip-path="url(#clip2)"
       clip-rule="nonzero"
       id="g49">
      <path
         style=" stroke:none;fill-rule:nonzero;fill:rgb(0%,0%,0%);fill-opacity:1;"
         d="M 344.214844 115.082031 L 343.613281 110.828125 C 344.644531 111.070312 345.542969 111.234375 346.304688 111.234375 C 347.320312 111.203125 348.1875 111.066406 348.8125 110.722656 C 349.441406 110.351562 349.957031 109.902344 350.355469 109.285156 C 350.636719 108.808594 351.132812 107.683594 351.792969 105.851562 C 351.855469 105.589844 352.019531 105.21875 352.214844 104.726562 L 342.015625 77.441406 L 346.910156 77.441406 L 352.46875 92.964844 C 353.171875 94.925781 353.835938 97.003906 354.40625 99.175781 C 354.90625 97.300781 355.5625 95.375 356.289062 93.355469 L 362.011719 77.441406 L 366.886719 77.441406 L 356.691406 105.195312 C 355.527344 108.125 354.667969 110.175781 354.039062 111.289062 C 353.1875 112.769531 352.234375 113.886719 351.148438 114.585938 C 350.050781 115.269531 348.765625 115.632812 347.261719 115.632812 C 346.335938 115.601562 345.335938 115.449219 344.214844 115.082031 "
         id="path47" />
    </g>
    <path
       style=" stroke:none;fill-rule:nonzero;fill:rgb(1.960754%,70.195007%,85.488892%);fill-opacity:1;"
       d="M 30.105469 54.300781 C 30.875 54.558594 31.609375 54.957031 32.265625 55.511719 C 34.355469 57.292969 34.226562 59.824219 35.628906 61.882812 C 39.839844 68.03125 47.589844 65.175781 48.3125 58.351562 C 49.570312 46.398438 34.027344 41.839844 25.3125 43.167969 C 8.246094 45.769531 -2.253906 65.238281 1.140625 80.734375 C 4.429688 95.792969 17.5625 106.867188 32.429688 109.074219 C 47.71875 111.339844 65.921875 106.953125 76.15625 94.589844 C 97.835938 68.410156 90.722656 21.9375 58.292969 7.683594 C 50.183594 4.121094 39.300781 0.964844 30.414062 0.726562 C 25.253906 0.585938 23.710938 0.292969 12.445312 0.75 C 12.023438 1.273438 12.207031 1.472656 12.078125 2.148438 C 23.8125 2.25 36.457031 1.78125 47.679688 5.726562 C 59.101562 9.746094 69.632812 18.890625 75.902344 28.953125 C 93.316406 56.917969 75.773438 103.578125 38.925781 100.167969 C 27.878906 99.144531 16.71875 92.027344 12.976562 81.328125 C 9.480469 71.335938 13.261719 56.535156 25.316406 54.125 C 26.917969 53.800781 28.589844 53.792969 30.105469 54.300781 "
       id="path51" />
    <g
       clip-path="url(#clip3)"
       clip-rule="nonzero"
       id="g55">
      <path
         style="fill:none;stroke-width:1.008;stroke-linecap:butt;stroke-linejoin:miter;stroke:rgb(1.960754%,70.195007%,85.488892%);stroke-opacity:1;stroke-miterlimit:10;"
         d="M 30.105469 61.333084 C 30.875 61.075271 31.609375 60.676834 32.265625 60.122146 C 34.355469 58.340896 34.226562 55.809646 35.628906 53.751053 C 39.839844 47.602615 47.589844 50.458084 48.3125 57.282303 C 49.570312 69.235428 34.027344 73.794021 25.3125 72.465896 C 8.246094 69.864334 -2.253906 50.395584 1.140625 34.89949 C 4.429688 19.840896 17.5625 8.766678 32.429688 6.559646 C 47.71875 4.294021 65.921875 8.68074 76.15625 21.044021 C 97.835938 47.223709 90.722656 93.696365 58.292969 107.950271 C 50.183594 111.512771 39.300781 114.669021 30.414062 114.907303 C 25.253906 115.047928 23.710938 115.340896 12.445312 114.883865 C 12.023438 114.360428 12.207031 114.161209 12.078125 113.485428 C 23.8125 113.383865 36.457031 113.852615 47.679688 109.907303 C 59.101562 105.887771 69.632812 96.74324 75.902344 86.68074 C 93.316406 58.715896 75.773438 12.05574 38.925781 15.465896 C 27.878906 16.489334 16.71875 23.606521 12.976562 34.30574 C 9.480469 44.297928 13.261719 59.098709 25.316406 61.508865 C 26.917969 61.833084 28.589844 61.840896 30.105469 61.333084 Z M 30.105469 61.333084 "
         transform="matrix(1,0,0,-1,0,115.633865)"
         id="path53" />
    </g>
  </g>
</svg>
